<svg xmlns="http://www.w3.org/2000/svg" viewBox="0 0 128 128" width="128" height="128">
  <g fill="#119EA0"><circle cx="43" cy="72" r="25"></circle><path d="M52 52 C 82 47,108 54,122 70 C 125 73,122 78,116 77 C 100 80,84 82,66 84 C 60 78,54 62,52 52 Z"></path></g>
  <circle cx="38" cy="63" r="4.3" fill="#FBFBF8"></circle>
  <path d="M63 68 C 84 69,100 71,111 73" fill="none" stroke="#FBFBF8" stroke-width="2.4" stroke-linecap="round"></path>
  <g stroke="#119EA0" stroke-width="4.4" fill="none" stroke-linecap="round" stroke-linejoin="round"><ellipse cx="110" cy="14" rx="13" ry="4.6"></ellipse><path d="M97 14 V34 a13 4.6 0 0 0 26 0 V14"></path><path d="M97 24 a13 4.6 0 0 0 26 0"></path></g>
</svg>